<svg width="132" height="32" viewBox="0 0 132 32" fill="none" xmlns="http://www.w3.org/2000/svg">
<rect x="0.580078" width="35.705" height="32" rx="6" fill="black"/>
<path d="M6.25 9.00277C6.25 8.22277 6.44 7.50277 6.82 6.84277C7.22 6.18277 7.74 5.66277 8.38 5.28277C9.04 4.90277 9.77 4.71277 10.57 4.71277H12.4V9.03277L10.78 9.03277C10.72 9.03277 10.67 9.04277 10.63 9.06277C10.61 9.10277 10.6 9.14277 10.6 9.18277V21.7528C10.6 21.7928 10.61 21.8328 10.63 21.8728C10.67 21.9128 10.72 21.9328 10.78 21.9328H14.71C14.75 21.9328 14.78 21.9128 14.8 21.8728C14.84 21.8328 14.86 21.7928 14.86 21.7528V9.00277C14.86 8.22277 15.05 7.50277 15.43 6.84277C15.83 6.18277 16.36 5.66277 17.02 5.28277C17.68 4.90277 18.4 4.71277 19.18 4.71277H23.53C24.33 4.71277 25.05 4.90277 25.69 5.28277C26.35 5.66277 26.87 6.18277 27.25 6.84277C27.65 7.50277 27.85 8.22277 27.85 9.00277V21.9928C27.85 22.7728 27.65 23.4828 27.25 24.1228C26.87 24.7828 26.35 25.3128 25.69 25.7128C25.05 26.1128 24.33 26.3128 23.53 26.3128H21.7V21.9328H23.32C23.38 21.9328 23.42 21.9128 23.44 21.8728C23.48 21.8328 23.5 21.7928 23.5 21.7528V9.18277C23.5 9.14277 23.48 9.10277 23.44 9.06277C23.42 9.04277 23.38 9.03277 23.32 9.03277L19.39 9.03277C19.35 9.03277 19.31 9.04277 19.27 9.06277C19.25 9.10277 19.24 9.14277 19.24 9.18277V21.9928C19.24 22.7728 19.04 23.4828 18.64 24.1228C18.26 24.7828 17.74 25.3128 17.08 25.7128C16.42 26.1128 15.7 26.3128 14.92 26.3128H10.57C9.77 26.3128 9.04 26.1128 8.38 25.7128C7.74 25.3128 7.22 24.7828 6.82 24.1228C6.44 23.4828 6.25 22.7728 6.25 21.9928V9.00277Z" fill="white"/>
<rect x="14.05" y="14" width="5.79" height="3" fill="black"/>
<path d="M59.5839 24H56.1137V16.9136H49.6112V24H46.1298V7.58105H49.6112V14.0161H56.1137V7.58105H59.5839V24ZM76.9884 7.58105V18.2051C76.9884 19.3356 76.7376 20.3576 76.236 21.271C75.7418 22.1769 74.9894 22.8957 73.9786 23.4272C72.9754 23.9588 71.7101 24.2246 70.1827 24.2246C68.0115 24.2246 66.3569 23.6706 65.2189 22.5625C64.0808 21.4544 63.5118 19.987 63.5118 18.1602V7.58105H66.982V17.6323C66.982 18.9875 67.2591 19.9383 67.8131 20.4849C68.3671 21.0314 69.187 21.3047 70.2726 21.3047C71.0362 21.3047 71.6539 21.1737 72.1256 20.9116C72.6048 20.6496 72.9567 20.2453 73.1813 19.6987C73.4059 19.1522 73.5182 18.4559 73.5182 17.6099V7.58105H76.9884ZM85.6781 7.58105C87.168 7.58105 88.3959 7.76074 89.3617 8.12012C90.335 8.47949 91.0575 9.0223 91.5292 9.74854C92.0008 10.4748 92.2367 11.3919 92.2367 12.5C92.2367 13.2487 92.0944 13.9038 91.8099 14.4653C91.5254 15.0269 91.1511 15.5023 90.6869 15.8916C90.2227 16.2809 89.7211 16.5991 89.182 16.8462L94.0111 24H90.1478L86.2284 17.6997H84.3754V24H80.8939V7.58105H85.6781ZM85.431 10.4336H84.3754V14.8696H85.4984C86.6514 14.8696 87.475 14.6787 87.9691 14.2969C88.4707 13.9076 88.7215 13.3385 88.7215 12.5898C88.7215 11.8112 88.452 11.2572 87.9129 10.9277C87.3814 10.5983 86.5541 10.4336 85.431 10.4336ZM110.865 15.7681C110.865 17.0334 110.708 18.1864 110.394 19.2271C110.079 20.2603 109.6 21.1512 108.956 21.8999C108.32 22.6486 107.511 23.2251 106.53 23.6294C105.55 24.0262 104.389 24.2246 103.049 24.2246C101.709 24.2246 100.548 24.0262 99.5675 23.6294C98.5867 23.2251 97.7743 22.6486 97.1305 21.8999C96.4941 21.1512 96.0187 20.2565 95.7042 19.2158C95.3897 18.1751 95.2325 17.0184 95.2325 15.7456C95.2325 14.0461 95.5095 12.5674 96.0636 11.3096C96.6251 10.0443 97.4861 9.06348 98.6466 8.36719C99.8071 7.6709 101.282 7.32275 103.071 7.32275C104.853 7.32275 106.317 7.6709 107.462 8.36719C108.615 9.06348 109.469 10.0443 110.023 11.3096C110.585 12.5749 110.865 14.061 110.865 15.7681ZM98.8824 15.7681C98.8824 16.9136 99.0247 17.9019 99.3092 18.7329C99.6012 19.5565 100.054 20.1929 100.668 20.6421C101.282 21.0838 102.076 21.3047 103.049 21.3047C104.037 21.3047 104.838 21.0838 105.452 20.6421C106.066 20.1929 106.512 19.5565 106.789 18.7329C107.073 17.9019 107.215 16.9136 107.215 15.7681C107.215 14.0461 106.893 12.6909 106.25 11.7026C105.606 10.7144 104.546 10.2202 103.071 10.2202C102.091 10.2202 101.289 10.4448 100.668 10.894C100.054 11.3358 99.6012 11.9722 99.3092 12.8032C99.0247 13.6268 98.8824 14.6151 98.8824 15.7681ZM128.719 24H124.294L117.152 11.5791H117.051C117.081 12.0957 117.107 12.616 117.129 13.1401C117.152 13.6642 117.174 14.1883 117.197 14.7124C117.219 15.229 117.242 15.7493 117.264 16.2734V24H114.153V7.58105H118.544L125.676 19.8784H125.754C125.739 19.3693 125.721 18.8639 125.698 18.3623C125.676 17.8607 125.653 17.359 125.631 16.8574C125.616 16.3558 125.601 15.8542 125.586 15.3525V7.58105H128.719V24Z" fill="black"/>
</svg>
